<svg t="1722421228686" class="icon" viewBox="0 0 1024 1024" version="1.1" xmlns="http://www.w3.org/2000/svg" p-id="2727"
     width="200" height="200">
    <path d="M512 2.56C231.424 2.56 3.584 229.888 3.584 510.976S231.424 1018.88 512 1018.88s508.416-227.328 508.416-508.416S793.088 2.56 512 2.56z m0 941.568c-239.616 0-433.664-194.048-433.664-433.664C78.336 270.848 272.384 76.8 512 76.8s433.664 194.048 433.664 433.664-194.048 433.664-433.664 433.664z"
          fill="#F4DCCB" p-id="2728"></path>
    <path d="M421.376 792.576c-111.616 0-202.24-90.624-202.24-202.24s90.624-202.24 202.24-202.24 202.24 90.624 202.24 202.24-90.624 202.24-202.24 202.24z m0-363.52c-89.088 0-161.28 72.192-161.28 161.28s72.192 161.28 161.28 161.28 161.28-72.192 161.28-161.28-72.192-161.28-161.28-161.28z"
          fill="#FF9D4D" p-id="2729"></path>
    <path d="M602.624 792.576c-111.616 0-202.24-90.624-202.24-202.24s90.624-202.24 202.24-202.24 202.24 90.624 202.24 202.24-90.624 202.24-202.24 202.24z m0-363.52c-89.088 0-161.28 72.192-161.28 161.28s72.192 161.28 161.28 161.28 161.28-72.192 161.28-161.28-72.192-161.28-161.28-161.28z"
          fill="#FF9D4D" p-id="2730"></path>
    <path d="M512 633.344c-111.616 0-202.24-90.624-202.24-202.24S400.384 228.864 512 228.864s202.24 90.624 202.24 202.24-90.624 202.24-202.24 202.24z m0-363.52c-89.088 0-161.28 72.192-161.28 161.28s72.192 161.28 161.28 161.28 161.28-72.192 161.28-161.28-72.192-161.28-161.28-161.28z"
          fill="#FF9D4D" p-id="2731"></path>
</svg>